/vscmnt/brussel_pixiu_data/_data_brussel/112/vsc11236/PredSimResults/SUBJ06mtu3D/worker1.mot
version=1
nRows=9
nColumns=50
inDegrees=yes
endheader
                time	         pelvis_tilt	         pelvis_list	     pelvis_rotation	           pelvis_tx	           pelvis_ty	           pelvis_tz	       hip_flexion_r	     hip_adduction_r	      hip_rotation_r	        knee_angle_r	       ankle_angle_r	         mtp_angle_r	       hip_flexion_l	     hip_adduction_l	      hip_rotation_l	        knee_angle_l	       ankle_angle_l	         mtp_angle_l	    lumbar_extension	      lumbar_bending	     lumbar_rotation	 ercspn_r/activation	 intobl_r/activation	 extobl_r/activation	    abd_r/activation	    add_r/activation	hamstrings_r/activation	bifemsh_r/activation	glut_max_r/activation	iliopsoas_r/activation	rect_fem_r/activation	  vasti_r/activation	gastroc_r/activation	 soleus_r/activation	tib_ant_r/activation	 ercspn_l/activation	 intobl_l/activation	 extobl_l/activation	    abd_l/activation	    add_l/activation	hamstrings_l/activation	bifemsh_l/activation	glut_max_l/activation	iliopsoas_l/activation	rect_fem_l/activation	  vasti_l/activation	gastroc_l/activation	 soleus_l/activation	tib_ant_l/activation	
          1.28126917	         -7.73542544	         -4.63188502	          8.94810613	          1.43502147	          0.92770797	         -0.01531360	         30.95175298	          0.78273184	         -5.52754743	         -1.26760661	          6.46110840	          0.20799307	        -10.27214192	         -4.93990135	          6.51222537	         -6.62815461	         10.31913664	         28.49985314	         -1.55627776	          2.57636210	         -3.08975335	          0.10265142	          0.18456798	          0.03126496	          0.01213544	          0.08435161	          0.07421410	          0.23122841	          0.01208422	          0.09855260	          0.00999999	          0.00999999	          0.01879653	          0.00999999	          0.28039812	          0.05392927	          0.00999999	          0.00999999	          0.05708239	          0.00999999	          0.01659619	          0.13252510	          0.04703772	          0.40212622	          0.01213544	          0.00999999	          0.33868193	          0.31732486	          0.01787175	
          1.29408186	         -7.83695299	         -4.56810282	          9.01749310	          1.45206201	          0.92559827	         -0.01502973	         30.93165875	          0.86866679	         -5.33742382	         -2.68162447	          6.02812974	          0.21245577	        -10.49812232	         -4.92727414	          6.15063730	         -7.95810778	          9.71277784	         30.41926619	         -1.28200789	          2.90867426	         -3.25914158	          0.08458807	          0.15576559	          0.02576334	          0.00999999	          0.09165151	          0.06583680	          0.19053965	          0.04708688	          0.08121051	          0.00999999	          0.00999999	          0.02631960	          0.01767729	          0.28852085	          0.07898824	          0.00999999	          0.00999999	          0.04703772	          0.01407560	          0.01610915	          0.10920495	          0.03876059	          0.38424241	          0.00999999	          0.01196142	          0.31087988	          0.29942092	          0.01472690	
          1.30689456	         -7.91851533	         -4.50063280	          9.03042816	          1.46948203	          0.92372061	         -0.01465258	         30.76275852	          0.95684273	         -5.14208887	         -4.08359540	          5.54461525	          0.19965817	        -10.63750083	         -4.90416305	          5.76108661	         -9.51277063	          8.94281277	         32.37637188	         -0.99225384	          3.25258121	         -3.40784804	          0.07572990	          0.12835586	          0.02122982	          0.05319546	          0.07552379	          0.06520635	          0.15701080	          0.09230789	          0.06692007	          0.00999999	          0.00999999	          0.02168820	          0.01456666	          0.34303148	          0.09597985	          0.00999999	          0.00999999	          0.03876060	          0.01159874	          0.01327446	          0.08998839	          0.03193998	          0.37505870	          0.01281975	          0.02168816	          0.26963146	          0.27675021	          0.01213544	
          1.31970725	         -7.98214587	         -4.42291677	          8.98565948	          1.48704719	          0.92231833	         -0.01416598	         30.47201315	          1.06251530	         -4.97875616	         -5.27142623	          4.89690196	          0.17716689	        -10.61224936	         -4.85659010	          5.34497168	        -11.38541644	          7.95260239	         34.34672861	         -0.71100232	          3.59647380	         -3.52880436	          0.08274419	          0.10576936	          0.01749405	          0.10819995	          0.09889481	          0.06006125	          0.12938195	          0.12966029	          0.05514429	          0.00999999	          0.00999999	          0.01787177	          0.01200340	          0.37643048	          0.12910200	          0.00999999	          0.00999999	          0.03193998	          0.02004465	          0.01758268	          0.07415333	          0.02631957	          0.36337157	          0.01472689	          0.01787175	          0.22218500	          0.23643094	          0.00999999	
          1.33251994	         -8.02702569	         -4.33943209	          8.88786858	          1.50454759	          0.92156139	         -0.01358957	         30.12609586	          1.18790249	         -4.83224831	         -6.41627421	          4.39827124	          0.14712024	        -10.32705916	         -4.78134104	          4.90092369	        -13.71889024	          6.75407357	         36.21546194	         -0.45509726	          3.94563794	         -3.61937297	          0.08004580	          0.08715735	          0.01441566	          0.14520165	          0.12486273	          0.05460185	          0.10661489	          0.15458560	          0.04544067	          0.00999999	          0.01772338	          0.01472692	          0.00999999	          0.40058579	          0.16025239	          0.00999999	          0.00999999	          0.02631957	          0.04334835	          0.01639026	          0.06110473	          0.02168817	          0.34146316	          0.01213544	          0.01472690	          0.18308758	          0.19482670	          0.00999999	
          1.34533263	         -8.05265405	         -4.24781343	          8.73887280	          1.52181843	          0.92152110	         -0.01294627	         29.74899784	          1.32455800	         -4.69551853	         -7.55703787	          4.11411190	          0.12334683	         -9.70914422	         -4.67239045	          4.41905796	        -16.61930475	          5.37730084	         37.77485995	         -0.23738601	          4.29768198	         -3.67624718	          0.07531433	          0.07182046	          0.01187897	          0.15999205	          0.10636826	          0.05660803	          0.08785410	          0.15906323	          0.03744457	          0.00999999	          0.07307480	          0.01213545	          0.00999999	          0.40540356	          0.17157997	          0.00999999	          0.00999999	          0.02168817	          0.06752405	          0.02168817	          0.05035226	          0.01787175	          0.30338386	          0.00999999	          0.01213544	          0.15087006	          0.16054347	          0.00999999	
          1.35814532	         -8.06085455	         -4.13767538	          8.54199235	          1.53873169	          0.92224341	         -0.01227603	         29.30219806	          1.46009248	         -4.54913898	         -8.59562971	          3.99394644	          0.10142882	         -8.72502625	         -4.52392072	          3.88534941	        -20.11821889	          3.89368443	         38.63434116	         -0.06829125	          4.64307725	         -3.69814190	          0.06206143	          0.05918237	          0.00999999	          0.15924866	          0.08765087	          0.05251500	          0.07239460	          0.15179818	          0.03085553	          0.00999999	          0.13103485	          0.01000000	          0.01000000	          0.39898464	          0.18079825	          0.00999999	          0.00999999	          0.01787175	          0.08569083	          0.01787175	          0.04149188	          0.01472690	          0.25323707	          0.00999999	          0.00999999	          0.12432178	          0.13229298	          0.00999999	
          1.37095801	         -8.05357613	         -3.99802991	          8.29829402	          1.55524393	          0.92372814	         -0.01160528	         28.72651803	          1.58593323	         -4.37350229	         -9.41725995	          4.01938019	          0.08602728	         -7.38765338	         -4.33922642	          3.29733777	        -24.16376880	          2.31648274	         38.49532551	          0.04936903	          4.96914640	         -3.68397563	          0.05114062	          0.04876818	          0.00999999	          0.15064749	          0.07222714	          0.05103897	          0.05965548	          0.13973411	          0.02542595	          0.00999999	          0.16372986	          0.00999999	          0.01000000	          0.38445189	          0.18711132	          0.00999999	          0.00999999	          0.01472690	          0.09706581	          0.01472690	          0.05316437	          0.01213544	          0.20867549	          0.00999999	          0.00999999	          0.10244515	          0.10901367	          0.00999999	
          1.38377071	         -8.03236333	         -3.81674935	          8.00759304	          1.57137863	          0.92588483	         -0.01094878	         27.98728934	          1.68942211	         -4.15796087	         -9.95547499	          4.14582182	          0.07876593	         -5.75054678	         -4.12129891	          2.67541174	        -28.59373508	          0.47856769	         37.44134569	          0.11943610	          5.26019350	         -3.63280226	          0.04214151	          0.04018655	          0.00999999	          0.14147622	          0.05951748	          0.04923721	          0.04915804	          0.12669140	          0.02095180	          0.00999999	          0.17812530	          0.00999999	          0.00999999	          0.36658696	          0.18636501	          0.00999999	          0.00999999	          0.01213544	          0.11193566	          0.01213544	          0.07287135	          0.00999999	          0.17195532	          0.00999999	          0.00999999	          0.08441810	          0.08983077	          0.01966449	
